<svg width="71" height="29" viewBox="0 0 71 29" fill="none" xmlns="http://www.w3.org/2000/svg">
<path fill-rule="evenodd" clip-rule="evenodd" d="M11.3876 7.12C16.8504 5.6128 20.8502 5.80264 21.4395 7.50077C22.0285 9.19891 18.9839 11.7625 13.5212 13.2698C8.05833 14.7767 3.15235 14.6217 2.5631 12.9235C1.97384 11.2254 5.92489 8.6269 11.3877 7.12H11.3876Z" fill="#A61403"/>
<path fill-rule="evenodd" clip-rule="evenodd" d="M14.5807 18.5193C14.6815 22.7503 14.6455 25.0795 14.1115 28.8204C15.4699 28.5058 16.9464 26.3755 17.2295 24.7465C16.6271 24.4281 15.9308 23.9617 15.3849 23.5679C16.0232 23.5503 16.8121 23.5319 17.4507 23.514C17.2097 22.0327 16.8874 20.6086 16.162 19.2712C15.6352 19.0205 15.1077 18.7695 14.5806 18.5193H14.5807ZM12.8911 22.8518C13.0647 22.8518 13.2305 23.0524 13.2605 23.2996C13.2908 23.5467 13.1741 23.7473 13.0005 23.7473C12.8265 23.7473 12.6612 23.5467 12.6308 23.2996C12.6007 23.0524 12.7175 22.8518 12.8911 22.8518ZM12.4454 20.7981C12.619 20.7981 12.7847 20.9987 12.8148 21.2458C12.8451 21.493 12.7285 21.6936 12.5548 21.6936C12.3809 21.6936 12.2155 21.493 12.1851 21.2458C12.155 20.9987 12.2718 20.7981 12.4454 20.7981ZM7.18873 10.4825C7.31716 11.6911 7.43316 12.6574 8.45809 13.5046C8.41636 14.2236 8.37042 14.9404 8.32076 15.6591C9.01292 16.7797 12.626 18.5227 13.6358 16.5933C12.6087 16.0806 12.1983 15.4989 12.0381 15.057C13.1663 15.7458 13.9555 16.0565 15.1959 16.2466C16.5843 16.3603 16.5049 16.2118 16.332 14.7777C16.8122 14.2015 16.6786 13.7517 16.4103 13.093C17.7436 12.5645 17.659 12.8638 17.0176 11.6045C16.8022 11.2847 16.5868 10.9648 16.371 10.6447C16.475 10.0565 16.2633 8.00932 15.9194 7.49805C15.6984 7.68344 15.4807 7.89369 15.2704 8.13288C13.3382 10.3334 10.4366 10.6368 7.76246 10.5015C7.56506 10.4915 7.37413 10.4853 7.18873 10.4825ZM13.6243 18.0346C13.8108 18.7029 13.7966 19.3903 13.6761 20.0883C13.305 19.796 12.9339 19.5035 12.5632 19.2111C12.4835 19.3575 12.3112 19.459 12.1116 19.459C11.9283 19.459 11.7685 19.3737 11.6818 19.2467C11.0973 19.5547 10.5129 19.863 9.928 20.1709C9.79854 19.3541 9.79129 18.537 9.87665 17.7199C10.4324 18.0568 10.9883 18.3934 11.544 18.7303C11.5941 18.751 11.6442 18.7721 11.6942 18.7928C11.7833 18.6754 11.9369 18.5977 12.1116 18.5977C12.3209 18.5977 12.5 18.7092 12.5738 18.867C12.9243 18.5895 13.2743 18.3123 13.6243 18.0346V18.0346ZM13.1804 28.8204C11.4039 24.6093 10.0272 22.2563 7.03374 18.0356C6.39544 18.3757 5.75744 18.7161 5.11914 19.0565C5.45471 20.5782 5.42224 22.0996 5.31312 23.6217C6.36784 23.4156 7.95029 22.9457 9.00494 22.7396C8.32314 23.5032 7.25642 24.1941 6.48829 24.704C9.59907 26.3672 11.5143 27.3918 13.1804 28.8204Z" fill="#A6FF01"/>
<path d="M24.3891 4.68287C25.3379 4.68287 26.056 4.90195 26.5439 5.34018C27.0318 5.77841 27.2757 6.5441 27.2757 7.63727V8.36939C27.2757 8.92045 27.1922 9.3496 27.0252 9.65684C26.8581 9.96396 26.6795 10.1583 26.4898 10.2394V10.3614C26.6705 10.4337 26.8466 10.6189 27.0185 10.917C27.1901 11.2152 27.2757 11.5946 27.2757 12.0555V12.8415C27.2757 13.9346 27.0318 14.7004 26.5439 15.1386C26.0561 15.5768 25.3379 15.7959 24.3891 15.7959H22.3021V4.68287H24.3891ZM24.552 13.1938C25.2115 13.1938 25.5413 12.959 25.5413 12.4893V12.0147C25.5413 11.7257 25.4575 11.5247 25.2904 11.4119C25.1234 11.299 24.8769 11.2424 24.552 11.2424H24.0368V13.1938H24.552ZM24.552 9.18224C24.877 9.18224 25.1234 9.12601 25.2904 9.01306C25.4575 8.8998 25.5413 8.69893 25.5413 8.40991V7.98983C25.5413 7.5198 25.2115 7.28494 24.552 7.28494H24.0368V9.18218H24.552V9.18224ZM29.6825 4.68287V15.7959H27.9477V4.68287H29.6825ZM32.1976 4.68287V13.1938H34.3525V15.7959H30.4629V4.68287H32.1977H32.1976ZM36.4881 4.68287V13.1938H38.6429V15.7959H34.7534V4.68287H36.4881H36.4881ZM40.8326 4.68287V15.7959H39.0979V4.68287H40.8326ZM41.5183 8.58604C41.5183 7.16754 41.7552 6.14676 42.2298 5.52326C42.704 4.89982 43.3296 4.58813 44.1068 4.58813C44.8836 4.58813 45.5116 4.90195 45.9904 5.52996C46.4692 6.15797 46.7085 7.17662 46.7085 8.58604V11.8927C46.7085 13.3021 46.4692 14.3208 45.9904 14.9488C45.5116 15.5768 44.8836 15.8906 44.1068 15.8906C43.3296 15.8906 42.704 15.5792 42.2298 14.9558C41.7552 14.3323 41.5183 13.3112 41.5183 11.8927V8.58604ZM44.9741 8.95195C44.9741 8.38261 44.8994 7.98533 44.7506 7.75918C44.6013 7.53345 44.3868 7.42056 44.1068 7.42056C43.8357 7.42056 43.6257 7.53589 43.4764 7.76624C43.3276 7.99654 43.2528 8.39175 43.2528 8.95195V11.5268C43.2528 12.087 43.3276 12.4823 43.4764 12.7129C43.6257 12.9432 43.8357 13.0581 44.1068 13.0581C44.3868 13.0581 44.6013 12.9453 44.7506 12.7196C44.8994 12.4938 44.9741 12.0961 44.9741 11.5268V8.95195ZM52.3137 4.68287V15.7959H50.4842L49.0748 10.0496H48.9529V15.7959H47.3265V4.68287H49.156L50.5657 10.5374H50.6877V4.68287H52.3137ZM52.6198 15.7959L53.6903 4.68287H56.6988L57.7696 15.7959H56.089L55.9671 14.2782H54.6254L54.4899 15.7959H52.6198ZM55.7367 11.6761L55.3436 7.39339H55.2352L54.8557 11.6761H55.7367ZM59.8646 4.68287V15.7959H58.1299V4.68287H59.8646ZM62.705 4.68287C63.6716 4.68287 64.4126 4.9089 64.9277 5.36047C65.4424 5.81234 65.7 6.6074 65.7 7.74595V9.18224C65.7 10.2485 65.4651 11.0299 64.9951 11.5268L65.7 15.7959H63.8705L63.1656 12.2453H62.3796V15.7959H60.6449V4.68281H62.705L62.705 4.68287ZM63.9652 8.20648C63.9652 7.88115 63.8771 7.64634 63.701 7.50202C63.5249 7.35732 63.2152 7.28494 62.7728 7.28494H62.3796V9.85978H62.7728C63.2152 9.85978 63.5249 9.78533 63.701 9.63619C63.8771 9.48735 63.9652 9.2322 63.9652 8.87049V8.20642V8.20648ZM70.2074 4.68287V7.17662H67.9306V8.91137H69.9903V11.2966H67.9306V13.3022H70.2074V15.7959H66.1959V4.68287H70.2074ZM25.2837 22.6029C25.5727 23.127 25.8167 23.6373 26.0155 24.1342C26.2143 24.6312 26.3136 25.1327 26.3136 25.6386C26.3136 27.4185 25.6133 28.3082 24.213 28.3082C23.9418 28.3082 23.7024 28.288 23.4948 28.2474C23.2869 28.2069 23.1041 28.1569 22.9459 28.0982C22.7879 28.0394 22.6544 27.9923 22.546 27.9559L22.1124 24.4595C22.3021 24.7849 22.5394 25.0354 22.8239 25.2116C23.1084 25.3877 23.3862 25.4758 23.6573 25.4758C23.9827 25.4758 24.1452 25.3224 24.1452 25.0151C24.1452 24.6266 23.96 24.0891 23.5895 23.4024L23.1831 22.657L23.0203 22.3453C22.7221 21.8032 22.4964 21.322 22.3426 20.902C22.1892 20.4818 22.1123 20.0189 22.1123 19.5128C22.1123 18.7719 22.3 18.1691 22.675 17.7036C23.0496 17.2385 23.6664 17.0057 24.5247 17.0057C24.7777 17.0057 25.0237 17.0306 25.2635 17.0802C25.5029 17.1298 25.7084 17.1773 25.88 17.2224L26.3136 20.868C26.1511 20.579 25.9003 20.3417 25.5616 20.1565C25.2225 19.9713 24.9133 19.8787 24.633 19.8787C24.5156 19.8787 24.4185 19.9126 24.3415 19.9804C24.2651 20.0481 24.2266 20.1453 24.2266 20.2718C24.2266 20.4074 24.2761 20.5926 24.3754 20.8275C24.475 21.0623 24.6284 21.3832 24.8363 21.7895L25.2836 22.6027L25.2837 22.6029ZM28.9234 17.1005C29.8272 17.1005 30.516 17.3379 30.9902 17.812C31.4643 18.2866 31.7017 19.1425 31.7017 20.3803V21.4101C31.7017 22.6479 31.4643 23.5042 30.9902 23.9783C30.516 24.4529 29.8272 24.6899 28.9234 24.6899H28.5712V28.2136H26.8364V17.1005H28.9234ZM29.0317 22.0877C29.3753 22.0877 29.6168 22.0224 29.7569 21.8913C29.8971 21.7603 29.9669 21.5548 29.9669 21.2748V20.5158C29.9669 20.2359 29.8971 20.0302 29.7569 19.899C29.6168 19.7684 29.3753 19.7026 29.0317 19.7026H28.5712V22.0878H29.0317V22.0877ZM33.8914 17.1005V28.2136H32.1566V17.1005H33.8914ZM39.659 17.1005V28.2136H37.8295L36.4202 22.4673H36.2982V28.2136H34.6718V17.1005H36.5012L37.9109 22.9551H38.0329V17.1005H39.6589H39.659Z" fill="#FEFEFE"/>
<path fill-rule="evenodd" clip-rule="evenodd" d="M15.2275 4.71387C13.4524 2.9132 10.4338 0.269154 7.81287 0.0205833C3.80479 -0.359096 3.05914 4.63967 3.05914 4.63967L1.81805 2.93465C1.81805 2.93465 -0.435531 1.64976 0.0753785 8.27038L1.66379 6.12762L2.93564 7.92378C2.93564 7.92378 2.94216 6.50041 5.23029 6.09478C6.22835 5.91798 6.46998 6.61221 6.42508 7.4512C8.83444 5.01935 13.2774 4.37178 15.2275 4.71387Z" fill="#FF5900"/>
<path fill-rule="evenodd" clip-rule="evenodd" d="M19.7026 6.27066C19.5966 6.26164 17.1611 5.97896 15.2703 8.13244C13.3381 10.3333 10.4365 10.637 7.76272 10.5011C5.09004 10.3653 3.52137 10.9136 2.78809 11.7155C3.75465 10.1524 7.22623 8.1021 11.5074 6.92109C14.7614 6.02313 17.6782 5.87435 19.7026 6.27066Z" fill="#FF5900"/>
<path fill-rule="evenodd" clip-rule="evenodd" d="M12.7709 4.02135L10.5537 4.55951C10.1256 4.73215 9.82225 5.2206 10.0038 5.67274L10.4557 6.79462C10.6372 7.24889 11.0688 7.57919 11.5724 7.45875L13.3532 7.03525C13.8554 6.91475 14.1123 6.4249 14.0498 5.93201L13.8852 4.65168C13.764 4.16317 13.2369 3.91158 12.7709 4.02129V4.02135ZM13.0118 5.29997L12.4636 5.41456C12.347 5.43942 12.2717 5.55334 12.2963 5.67103C12.3211 5.78702 12.436 5.86195 12.5527 5.83813L13.1002 5.72354C13.2179 5.69905 13.2921 5.58404 13.2673 5.46738C13.2431 5.35096 13.1281 5.27573 13.0118 5.29991V5.29997ZM10.7829 4.91789L12.9258 4.51327C13.1761 4.48184 13.4605 4.63066 13.4954 4.88847L13.6425 5.98202C13.6797 6.26651 13.5489 6.56507 13.2586 6.63446L11.4778 7.0587C11.1833 7.12809 10.9451 6.90677 10.8381 6.64201L10.3708 5.47079C10.3127 5.22675 10.5399 4.97479 10.7829 4.91783V4.91789Z" fill="#FFED00"/>
</svg>
