<svg width="128" height="40" viewBox="0 0 128 40" fill="none" xmlns="http://www.w3.org/2000/svg">
<path d="M79.5666 34.3107C77.148 34.3107 75.3346 32.0971 75.8106 29.7258L81.7516 12.1965H77.0594C75.0996 12.1965 73.6322 10.3998 74.0236 8.47949C74.3177 7.03655 75.5868 6 77.0594 6H95.4821C97.4419 6 98.9093 7.79672 98.5179 9.71703C98.2238 11.16 96.9547 12.1965 95.4821 12.1965H89.5663L83.3226 31.2338C82.9634 33.0232 81.3917 34.3107 79.5666 34.3107Z" fill="white"/>
<path d="M60.3481 34.3107C57.9303 34.3107 56.1169 32.0987 56.591 29.7278L63.1433 9.08006C63.5015 7.28914 65.074 6 66.9004 6C69.3182 6 71.1317 8.212 70.6575 10.5829L64.1052 31.2307C63.747 33.0216 62.1745 34.3107 60.3481 34.3107Z" fill="white"/>
<path d="M31.585 34.3107L39.0534 9.08206C39.4119 7.28997 40.9854 6 42.8129 6C45.2307 6 47.0449 8.21057 46.5732 10.5819L40.6627 28.1142H50.0516C52.0114 28.1142 53.4788 29.9109 53.0874 31.8312C52.7933 33.2742 51.5242 34.3107 50.0516 34.3107H31.585Z" fill="white"/>
<path d="M1 34.224L9.0084 6H22.848C23.933 6 25.8101 6 27.7924 6C31.6573 6 34.4548 9.7185 33.2168 13.3798C32.5754 15.2766 31.961 16.9084 31.618 17.34C30.6797 18.5204 28.7383 18.8666 27.1484 19.4961C25.5586 20.0995 23.7732 20.4011 21.7924 20.4011L22.8871 18.5125C25.4152 18.5125 28.1164 19.2994 29.602 20.4011C31.0876 21.5028 30.736 22.758 29.224 27.042C27.712 31.326 22.424 33.2797 22.424 33.2797C20.5474 33.9092 18.4233 34.224 16.0515 34.224H1ZM9.75725 28.5973C9.75725 28.5973 12.6036 28.5973 16.3891 28.5973C20.1746 28.5973 22.6736 22.3291 22.5488 22.3291C22.424 22.3291 20.2443 22.3291 19.3061 22.3291H11.8921L13.7281 16.9386C13.7281 16.9386 18.0986 16.9386 21.0316 16.9386C23.9647 16.9386 26.2112 11.6267 26.2112 11.6267C26.2112 11.6267 22.027 11.6267 21.0105 11.6267H15.5372L9.75725 28.5973Z" fill="white"/>
<path d="M126.243 6H103.618C102.107 6 100.809 7.07294 100.525 8.55692C100.152 10.4991 101.641 12.3 103.618 12.3H111.616L100.21 23.64H105.041L93.2314 33.972H116.711C117.645 33.972 118.527 33.5404 119.1 32.8028C120.643 30.8161 119.227 27.924 116.711 27.924H109.469L119.534 17.844H115.508L126.243 6Z" fill="url(#paint0_linear_46626_10845)"/>
<defs>
<linearGradient id="paint0_linear_46626_10845" x1="109.737" y1="6" x2="109.737" y2="33.972" gradientUnits="userSpaceOnUse">
<stop stop-color="#00FF69"/>
<stop offset="1" stop-color="#00DC5A"/>
</linearGradient>
</defs>
</svg>
