<svg width="136" height="28" viewBox="0 0 136 28" fill="none" xmlns="http://www.w3.org/2000/svg">
<path fill-rule="evenodd" clip-rule="evenodd" d="M44.0388 8.93293L45.155 7.81632H46.0481C47.0345 7.81635 47.8342 8.61623 47.8342 9.60293V19.8759C47.8342 20.8625 47.0345 21.6624 46.0481 21.6625H44.0388V21.823C44.0388 22.4203 44.3373 22.9782 44.8341 23.3095L45.3783 23.6725V23.8957L40.9133 27.6923V7.81632H44.0388V8.93293ZM45.155 11.482C45.155 11.2831 44.9146 11.1835 44.774 11.3241L44.0388 12.0595V17.866C44.0388 18.1126 44.2387 18.3126 44.4852 18.3126H44.7085C44.9551 18.3126 45.155 18.1126 45.155 17.866V11.482Z" fill="#E2DEA8"/>
<path d="M36.1598 0.447025C37.6394 0.447025 38.8388 1.64683 38.8388 3.12688V8.48672L35.0435 6.36517V3.57363C35.0435 3.32696 34.8436 3.12689 34.5971 3.12688H33.2575C33.0109 3.12689 32.811 3.32696 32.811 3.57363V6.84127L36.9111 8.96782C38.0954 9.58212 38.8388 10.8055 38.8388 12.14V18.983C38.8388 20.4631 37.6394 21.6629 36.1598 21.6629H31.6948C30.2152 21.6629 29.0156 20.4631 29.0156 18.983V11.3899L32.811 13.5115V18.5364C32.811 18.7831 33.0109 18.983 33.2575 18.983H34.5971C34.8436 18.983 35.0435 18.7831 35.0435 18.5364V13.0354L29.0156 9.68555V3.12688C29.0157 1.64683 30.2152 0.447025 31.6948 0.447025H36.1598Z" fill="#E2DEA8"/>
<path d="M89.5918 3.12688H77.7599C77.513 3.12688 77.3128 3.32711 77.3128 3.57404V18.5359C77.3128 18.7828 77.513 18.983 77.7599 18.983H78.8752C79.122 18.983 79.3222 18.7828 79.3222 18.5359V10.6126C79.3222 9.83027 78.9805 9.08698 78.3867 8.57785L77.7595 8.0401V7.81672H83.1175V18.983C83.1174 20.4631 81.918 21.6629 80.4385 21.6629H76.1966C74.717 21.6628 73.5176 20.4631 73.5176 18.983V3.12688C73.5176 1.64685 74.717 0.447051 76.1966 0.447025H92.7174L89.5918 3.12688Z" fill="#E2DEA8"/>
<path d="M53.034 20.0992L53.7038 21.4391V21.6625H49.9085V7.81632H53.034V20.0992Z" fill="#E2DEA8"/>
<path d="M58.169 8.93293L59.2852 7.81632H60.4015C61.3879 7.81634 62.1875 8.61623 62.1875 9.60293V19.5584C62.1875 19.911 62.2919 20.2559 62.4875 20.5494L63.0805 21.4391V21.6625H59.2852V11.482C59.2852 11.2831 59.0447 11.1834 58.904 11.3241L58.169 12.0595V21.6625H55.0433V7.81632H58.169V8.93293Z" fill="#E2DEA8"/>
<path fill-rule="evenodd" clip-rule="evenodd" d="M68.5306 7.81875C69.4743 7.86667 70.2246 8.6471 70.2246 9.60293V19.8759L70.2222 19.9679C70.1758 20.8814 69.4438 21.6137 68.5306 21.66L68.4386 21.6625H65.7596L65.6675 21.66C64.7544 21.6137 64.0222 20.8814 63.9759 19.9679L63.9736 19.8759V9.60293C63.9736 8.64709 64.7239 7.86665 65.6675 7.81875L65.7596 7.81632H68.4386L68.5306 7.81875ZM66.9875 11.1662C66.7409 11.1662 66.5409 11.3661 66.5409 11.6128V17.866C66.5409 18.1127 66.7409 18.3126 66.9875 18.3126H67.2107C67.4573 18.3126 67.6571 18.1127 67.6572 17.866V11.6128C67.6571 11.3661 67.4573 11.1662 67.2107 11.1662H66.9875Z" fill="#E2DEA8"/>
<path fill-rule="evenodd" clip-rule="evenodd" d="M89.8803 7.81632C90.8667 7.81634 91.6663 8.61623 91.6663 9.60293V19.1289C91.6663 19.7558 91.886 20.3631 92.2872 20.8447L92.7826 21.4391V21.6625H89.3687L88.764 20.4528L88.1594 21.6625H86.3082C85.3218 21.6625 84.5222 20.8626 84.5222 19.8759V16.2318C84.5222 15.4694 84.8468 14.7431 85.4147 14.2348L88.764 11.2369V10.7195C88.764 10.4729 88.564 10.2729 88.3174 10.2729H86.8897C86.4719 10.2729 86.0674 10.4195 85.7464 10.6871L84.9036 11.3895H84.6803V9.60293C84.6803 8.61622 85.48 7.81632 86.4664 7.81632H89.8803ZM87.4245 15.7852V18.5359C87.4245 18.7825 87.6244 18.9826 87.8709 18.9826H88.3174C88.564 18.9826 88.764 18.7825 88.764 18.5359V14.5861L87.4245 15.7852Z" fill="#E2DEA8"/>
<path d="M96.801 8.93293L97.9173 7.81632H100.82V8.93293L101.936 7.81632H103.052C104.039 7.81635 104.838 8.61624 104.838 9.60293V19.5584C104.838 19.911 104.943 20.2559 105.138 20.5494L105.731 21.4391V21.6625H101.936V11.482C101.936 11.2831 101.695 11.1834 101.555 11.3241L100.82 12.0595V21.6625H97.9173V11.482C97.9173 11.2831 97.6769 11.1834 97.5362 11.3241L96.801 12.0595V21.6625H93.6756V7.81632H96.801V8.93293Z" fill="#E2DEA8"/>
<path fill-rule="evenodd" clip-rule="evenodd" d="M111.378 3.79647V4.01985L110.833 4.38277C110.337 4.71411 110.038 5.27187 110.038 5.8692V7.81632H112.047C113.034 7.81635 113.834 8.61623 113.834 9.60293V19.8759C113.834 20.8625 113.034 21.6624 112.047 21.6625H111.154L110.038 20.5459V21.6625H106.913V0L111.378 3.79647ZM110.485 11.1662C110.238 11.1662 110.038 11.3661 110.038 11.6128V17.4192L110.773 18.1547C110.914 18.2953 111.154 18.1957 111.154 17.9968V11.6128C111.154 11.3661 110.954 11.1662 110.708 11.1662H110.485Z" fill="#E2DEA8"/>
<path d="M118.81 20.0992L119.48 21.4391V21.6625H115.685V7.81632H118.81V20.0992Z" fill="#E2DEA8"/>
<path d="M123.787 8.93293L124.903 7.81632H126.019C127.006 7.81632 127.805 8.61622 127.805 9.60293V19.5584C127.805 19.911 127.91 20.2559 128.105 20.5494L128.699 21.4391V21.6625H124.903V11.482C124.903 11.2831 124.663 11.1835 124.522 11.3241L123.787 12.0595V21.6625H120.661V7.81632H123.787V8.93293Z" fill="#E2DEA8"/>
<path fill-rule="evenodd" clip-rule="evenodd" d="M134.214 7.81875C135.157 7.86666 135.908 8.64709 135.908 9.60293V19.8759L135.905 19.9679C135.859 20.8814 135.127 21.6137 134.214 21.66L134.122 21.6625H131.443L131.351 21.66C130.437 21.6137 129.705 20.8814 129.659 19.9679L129.657 19.8759V9.60293C129.657 8.6471 130.407 7.86667 131.351 7.81875L131.443 7.81632H134.122L134.214 7.81875ZM132.671 11.1662C132.424 11.1662 132.224 11.3661 132.224 11.6128V17.866C132.224 18.1127 132.424 18.3126 132.671 18.3126H132.894C133.14 18.3126 133.34 18.1127 133.34 17.866V11.6128C133.34 11.3661 133.14 11.1662 132.894 11.1662H132.671Z" fill="#E2DEA8"/>
<path d="M53.034 6.69997H49.9085V2.68012L53.034 0.000270433V6.69997Z" fill="#E2DEA8"/>
<path d="M118.81 6.69997H115.685V2.68012L118.81 0.000270433V6.69997Z" fill="#E2DEA8"/>
<path d="M17.3421 21.5601L16.7733 26.5382C16.015 26.3012 14.157 25.258 12.792 22.9823C13.6452 22.8401 15.4368 22.2712 15.778 21.1334L17.3421 21.5601Z" fill="#332F24"/>
<path d="M6.25155 20.1376C7.19948 20.8962 9.46496 22.4702 10.9437 22.6978C9.90098 24.452 6.47902 27.05 1.13281 23.4089C1.51201 22.5081 3.06663 20.5928 6.25155 20.1376Z" fill="#332F24"/>
<path d="M22.1764 19.5684C23.1244 19.8054 25.0201 21.1614 25.0201 24.6887C23.2664 24.7835 19.4749 24.2619 18.3374 21.4173C19.0957 21.2277 20.9252 20.5924 22.1764 19.5684Z" fill="#332F24"/>
<path d="M6.25158 18.4307C12.0528 17.748 14.1666 20.0427 14.4984 21.2754C11.5409 23.2096 7.76823 20.1849 6.25158 18.4307Z" fill="#ED2337"/>
<path d="M4.11896 7.62179C3.55021 9.78372 4.11896 13.0267 4.11896 13.0267C4.12252 13.0382 5.06337 16.0708 8.24228 16.298C11.4272 16.5255 13.2663 17.8151 13.7876 18.4314C12.9345 18.0995 10.5048 17.5544 7.37 17.5544C4.73611 17.5544 3.33456 17.3267 1.84386 15.5868C1.11665 14.7381 0.730219 14.1321 0.564173 13.0267C0.231572 10.8124 2.50743 9.13898 3.40795 8.04854L4.11896 7.62179Z" fill="#ED2337"/>
<path d="M4.97203 8.19038C5.57377 3.87038 7.86306 2.78556 9.09535 2.92776C5.96727 7.05248 6.39391 13.3107 9.94857 14.3063C12.7921 15.1028 13.4084 15.8708 13.361 16.1553C12.2235 16.1553 9.66422 16.0415 8.52668 15.5864C7.10479 15.0176 5.79006 14.529 4.97203 13.0263C4.06918 11.3677 4.71149 10.0608 4.97203 8.19038Z" fill="#ED2337"/>
<path d="M16.4891 0.367709C20.4703 -0.770146 24.1672 0.794424 24.5938 4.20799C24.935 6.93879 23.5036 8.75929 22.7453 9.32822C23.769 3.29755 19.001 0.841783 16.4891 0.367709Z" fill="#ED2337"/>
<path d="M24.7358 8.61699C24.7832 9.5652 24.7358 11.8884 22.5694 12.9926C20.6223 13.9851 18.7004 15.4806 18.053 16.2975C20.8967 15.6188 23.8543 13.7723 25.333 11.6104C27.442 12.8369 24.0893 19.6273 16.4889 20.5646C15.1144 20.1853 13.0765 18.5448 15.9202 15.0175C16.2838 14.6323 16.8864 14.0965 17.6395 13.5618C18.5646 13.5388 20.6731 13.109 21.7064 11.5736C23.394 10.7785 24.365 9.40012 24.7358 8.61699Z" fill="#ED2337"/>
<path fill-rule="evenodd" clip-rule="evenodd" d="M10.0023 3.07062C12.1302 0.466348 15.1877 1.00243 16.3792 1.33332C20.5403 2.69917 21.6225 5.47889 21.7152 6.96125C22.1598 13.3773 17.7918 13.0509 15.7005 12.0716C15.4544 12.1192 15.4284 12.4791 15.6322 12.8831C16.1739 13.9568 15.2926 14.6543 14.681 14.7903C14.681 13.7709 13.5931 14.0423 13.5931 14.0423C13.1365 14.211 12.4764 14.4274 11.6224 14.0423C11.5251 13.9984 11.3773 13.8903 11.2191 13.7943C10.9168 13.6107 10.535 13.4379 10.2572 13.2191C10.2075 13.1799 10.1618 13.1515 10.1273 13.1419C9.89884 13.0789 9.2385 12.8862 9.22786 12.8831C9.22786 12.8831 8.20246 12.5369 8.52279 12.14C8.84374 11.7429 9.19747 11.0949 8.90364 10.9837C8.61009 10.8729 8.36002 11.0524 8.43294 11.5277C7.00142 10.7801 7.89694 8.96022 8.43294 8.2718C8.51229 7.76394 8.46602 7.32605 8.43294 7.17023C7.9664 6.17759 8.84024 4.99569 9.19759 4.67805C9.48347 4.42393 9.58827 4.21471 9.60482 4.14191C9.66841 3.7926 9.89639 3.28242 10.0023 3.07062ZM18.3509 5.00324C18.3115 4.79967 18.1411 4.73179 18.0784 5.00324C18.0159 5.27514 17.9761 5.77348 18.2142 6.09113C18.4048 6.34523 18.5544 6.43092 18.6224 6.90656C18.7498 7.79866 18.7586 8.71089 19.1663 9.14972C19.5067 9.51656 19.438 10.3047 19.3021 10.5765C19.0312 10.9854 18.4326 11.4889 17.6712 11.4603C17.3179 11.4469 17.1791 11.5542 17.515 11.6644C18.8052 11.9719 20.1852 11.1698 20.4574 10.305C20.7136 9.48955 20.5134 9.07752 20.1859 8.71027C19.9238 8.41646 19.6214 8.21331 19.4378 7.41926C18.9812 5.44391 18.6486 6.54744 18.3509 5.00324ZM10.6868 6.64387C10.6289 6.64931 10.5769 6.67638 10.5413 6.72297C10.4004 6.90829 10.3769 7.21713 10.2288 7.3968C9.86811 7.83414 9.53639 8.78528 9.86263 10.4652C10.0612 10.3063 10.6115 10.0728 11.1038 10.6048C11.7192 11.2693 12.464 10.3063 12.0472 9.31379C11.6304 8.32138 11.6397 8.21221 11.5306 7.58722C11.4214 6.96191 11.0045 6.61414 10.6868 6.64387ZM15.9378 5.06574C14.2384 4.50192 13.2374 5.08849 12.9495 5.45246C12.1636 6.46079 12.5565 7.30146 12.8509 7.59601C14.7766 9.61102 16.7813 8.99596 17.1585 8.42023C17.5357 7.84442 18.0617 5.77057 15.9378 5.06574ZM10.1605 5.51203C9.55505 5.30374 8.9897 5.70092 8.86068 5.97883C8.73168 6.25667 8.64171 6.46507 8.7806 7.39777C8.89174 8.14398 8.68196 8.708 8.56282 8.8968C8.72163 8.91702 8.88732 8.88908 9.03743 8.84113C9.34155 8.74388 9.44583 8.39931 9.52181 8.08918C9.58841 7.81742 9.73451 7.56275 9.89193 7.3548C10.0865 7.09739 9.99819 6.59258 10.2796 6.43488L10.7367 6.17707C10.5937 5.75623 10.2928 5.55835 10.1605 5.51203Z" fill="#E2DEA8"/>
</svg>
